<mxfile host="Electron" agent="Mozilla/5.0 (X11; Linux x86_64) AppleWebKit/537.36 (KHTML, like Gecko) draw.io/26.2.2 Chrome/134.0.6998.178 Electron/35.1.2 Safari/537.36" version="26.2.2">
  <diagram name="Page-1" id="VHkAz_g4b-9WarPghkiA">
    <mxGraphModel dx="985" dy="581" grid="1" gridSize="10" guides="1" tooltips="1" connect="1" arrows="1" fold="1" page="1" pageScale="1" pageWidth="850" pageHeight="1100" math="0" shadow="0">
      <root>
        <mxCell id="0" />
        <mxCell id="1" parent="0" />
        <mxCell id="GMgysGgVxunvrSP5ivFi-1" value="" style="rounded=0;whiteSpace=wrap;html=1;" vertex="1" parent="1">
          <mxGeometry x="10" y="80" width="500" height="1400" as="geometry" />
        </mxCell>
        <mxCell id="GMgysGgVxunvrSP5ivFi-6" value="" style="endArrow=classic;html=1;rounded=0;exitX=1;exitY=0;exitDx=0;exitDy=0;" edge="1" parent="1" source="GMgysGgVxunvrSP5ivFi-1">
          <mxGeometry width="50" height="50" relative="1" as="geometry">
            <mxPoint x="400" y="460" as="sourcePoint" />
            <mxPoint x="560" y="80" as="targetPoint" />
          </mxGeometry>
        </mxCell>
        <mxCell id="GMgysGgVxunvrSP5ivFi-7" value="Container" style="text;strokeColor=none;fillColor=none;align=left;verticalAlign=middle;spacingLeft=4;spacingRight=4;overflow=hidden;points=[[0,0.5],[1,0.5]];portConstraint=eastwest;rotatable=0;whiteSpace=wrap;html=1;" vertex="1" parent="1">
          <mxGeometry x="560" y="64" width="80" height="30" as="geometry" />
        </mxCell>
        <mxCell id="GMgysGgVxunvrSP5ivFi-8" value="" style="rounded=0;whiteSpace=wrap;html=1;fillColor=none;fontColor=#ffffff;strokeColor=#2D7600;" vertex="1" parent="1">
          <mxGeometry x="20" y="90" width="480" height="50" as="geometry" />
        </mxCell>
        <mxCell id="GMgysGgVxunvrSP5ivFi-10" value="Nav-bar" style="text;strokeColor=none;fillColor=none;align=left;verticalAlign=middle;spacingLeft=4;spacingRight=4;overflow=hidden;points=[[0,0.5],[1,0.5]];portConstraint=eastwest;rotatable=0;whiteSpace=wrap;html=1;" vertex="1" parent="1">
          <mxGeometry x="556" y="93" width="80" height="30" as="geometry" />
        </mxCell>
        <mxCell id="GMgysGgVxunvrSP5ivFi-12" value="" style="rounded=0;whiteSpace=wrap;html=1;fillColor=none;fontColor=#ffffff;strokeColor=#6F0000;" vertex="1" parent="1">
          <mxGeometry x="19.5" y="150" width="480" height="270" as="geometry" />
        </mxCell>
        <mxCell id="GMgysGgVxunvrSP5ivFi-13" value="" style="endArrow=classic;html=1;rounded=0;exitX=1;exitY=0;exitDx=0;exitDy=0;fillColor=#a20025;strokeColor=#6F0000;" edge="1" parent="1">
          <mxGeometry width="50" height="50" relative="1" as="geometry">
            <mxPoint x="500" y="150" as="sourcePoint" />
            <mxPoint x="560" y="150" as="targetPoint" />
          </mxGeometry>
        </mxCell>
        <mxCell id="GMgysGgVxunvrSP5ivFi-14" value="Banner" style="text;strokeColor=none;fillColor=none;align=left;verticalAlign=middle;spacingLeft=4;spacingRight=4;overflow=hidden;points=[[0,0.5],[1,0.5]];portConstraint=eastwest;rotatable=0;whiteSpace=wrap;html=1;" vertex="1" parent="1">
          <mxGeometry x="556" y="135" width="80" height="30" as="geometry" />
        </mxCell>
        <mxCell id="GMgysGgVxunvrSP5ivFi-15" value="" style="rounded=0;whiteSpace=wrap;html=1;fillColor=none;fontColor=#ffffff;strokeColor=#001DBC;" vertex="1" parent="1">
          <mxGeometry x="40" y="230" width="440" height="180" as="geometry" />
        </mxCell>
        <mxCell id="GMgysGgVxunvrSP5ivFi-16" value="" style="endArrow=classic;html=1;rounded=0;exitX=1;exitY=0;exitDx=0;exitDy=0;fillColor=#0050ef;strokeColor=#001DBC;" edge="1" parent="1" source="GMgysGgVxunvrSP5ivFi-15">
          <mxGeometry width="50" height="50" relative="1" as="geometry">
            <mxPoint x="240" y="180" as="sourcePoint" />
            <mxPoint x="560" y="230" as="targetPoint" />
          </mxGeometry>
        </mxCell>
        <mxCell id="GMgysGgVxunvrSP5ivFi-17" value="Banner-content" style="text;strokeColor=none;fillColor=none;align=left;verticalAlign=middle;spacingLeft=4;spacingRight=4;overflow=hidden;points=[[0,0.5],[1,0.5]];portConstraint=eastwest;rotatable=0;whiteSpace=wrap;html=1;" vertex="1" parent="1">
          <mxGeometry x="556" y="215" width="110" height="30" as="geometry" />
        </mxCell>
        <mxCell id="GMgysGgVxunvrSP5ivFi-18" value="" style="endArrow=classic;html=1;rounded=0;fillColor=#60a917;strokeColor=#2D7600;" edge="1" parent="1">
          <mxGeometry width="50" height="50" relative="1" as="geometry">
            <mxPoint x="500" y="110" as="sourcePoint" />
            <mxPoint x="559" y="109.28048780487813" as="targetPoint" />
          </mxGeometry>
        </mxCell>
        <mxCell id="GMgysGgVxunvrSP5ivFi-19" value="" style="rounded=0;whiteSpace=wrap;html=1;" vertex="1" parent="1">
          <mxGeometry x="50" y="240" width="420" height="40" as="geometry" />
        </mxCell>
        <mxCell id="GMgysGgVxunvrSP5ivFi-22" value="" style="rounded=0;whiteSpace=wrap;html=1;" vertex="1" parent="1">
          <mxGeometry x="57" y="290" width="405" height="30" as="geometry" />
        </mxCell>
        <mxCell id="GMgysGgVxunvrSP5ivFi-23" value="p" style="text;html=1;align=center;verticalAlign=middle;whiteSpace=wrap;rounded=0;" vertex="1" parent="1">
          <mxGeometry x="230" y="290" width="60" height="30" as="geometry" />
        </mxCell>
        <mxCell id="GMgysGgVxunvrSP5ivFi-24" value="h3" style="text;html=1;align=center;verticalAlign=middle;whiteSpace=wrap;rounded=0;" vertex="1" parent="1">
          <mxGeometry x="229.5" y="245" width="60" height="30" as="geometry" />
        </mxCell>
        <mxCell id="GMgysGgVxunvrSP5ivFi-25" value="Netflix-layout" style="text;html=1;align=center;verticalAlign=middle;whiteSpace=wrap;rounded=0;fontSize=25;fontStyle=5;fontColor=#FF0101;" vertex="1" parent="1">
          <mxGeometry x="175" y="20" width="170" height="30" as="geometry" />
        </mxCell>
        <mxCell id="GMgysGgVxunvrSP5ivFi-26" value="" style="rounded=0;whiteSpace=wrap;html=1;" vertex="1" parent="1">
          <mxGeometry x="57.5" y="330" width="405" height="30" as="geometry" />
        </mxCell>
        <mxCell id="GMgysGgVxunvrSP5ivFi-27" value="p" style="text;html=1;align=center;verticalAlign=middle;whiteSpace=wrap;rounded=0;" vertex="1" parent="1">
          <mxGeometry x="230" y="330" width="60" height="30" as="geometry" />
        </mxCell>
        <mxCell id="GMgysGgVxunvrSP5ivFi-29" value="" style="rounded=0;whiteSpace=wrap;html=1;" vertex="1" parent="1">
          <mxGeometry x="57.5" y="370" width="405" height="30" as="geometry" />
        </mxCell>
        <mxCell id="GMgysGgVxunvrSP5ivFi-30" value="Get-started-form" style="text;html=1;align=center;verticalAlign=middle;whiteSpace=wrap;rounded=0;" vertex="1" parent="1">
          <mxGeometry x="210" y="370" width="100" height="30" as="geometry" />
        </mxCell>
        <mxCell id="GMgysGgVxunvrSP5ivFi-32" value="" style="rounded=0;whiteSpace=wrap;html=1;" vertex="1" parent="1">
          <mxGeometry x="28" y="96" width="120" height="36" as="geometry" />
        </mxCell>
        <mxCell id="GMgysGgVxunvrSP5ivFi-33" value="Logo" style="text;html=1;align=center;verticalAlign=middle;whiteSpace=wrap;rounded=0;" vertex="1" parent="1">
          <mxGeometry x="50" y="99" width="60" height="30" as="geometry" />
        </mxCell>
        <mxCell id="GMgysGgVxunvrSP5ivFi-37" value="" style="rounded=0;whiteSpace=wrap;html=1;" vertex="1" parent="1">
          <mxGeometry x="300" y="96" width="190" height="36" as="geometry" />
        </mxCell>
        <mxCell id="GMgysGgVxunvrSP5ivFi-38" value="Language &amp;amp; Sign in" style="text;html=1;align=center;verticalAlign=middle;whiteSpace=wrap;rounded=0;" vertex="1" parent="1">
          <mxGeometry x="320" y="99" width="150" height="30" as="geometry" />
        </mxCell>
        <mxCell id="GMgysGgVxunvrSP5ivFi-39" value="" style="rounded=0;whiteSpace=wrap;html=1;fillColor=none;fontColor=#000000;strokeColor=#C73500;" vertex="1" parent="1">
          <mxGeometry x="19.5" y="430" width="480.5" height="200" as="geometry" />
        </mxCell>
        <mxCell id="GMgysGgVxunvrSP5ivFi-40" value="" style="endArrow=classic;html=1;rounded=0;exitX=1;exitY=0;exitDx=0;exitDy=0;fillColor=#fa6800;strokeColor=#C73500;" edge="1" parent="1" source="GMgysGgVxunvrSP5ivFi-39">
          <mxGeometry width="50" height="50" relative="1" as="geometry">
            <mxPoint x="240" y="460" as="sourcePoint" />
            <mxPoint x="560" y="430" as="targetPoint" />
          </mxGeometry>
        </mxCell>
        <mxCell id="GMgysGgVxunvrSP5ivFi-41" value="Carousal" style="text;html=1;align=center;verticalAlign=middle;whiteSpace=wrap;rounded=0;" vertex="1" parent="1">
          <mxGeometry x="556" y="415" width="60" height="30" as="geometry" />
        </mxCell>
        <mxCell id="GMgysGgVxunvrSP5ivFi-42" value="" style="rounded=0;whiteSpace=wrap;html=1;" vertex="1" parent="1">
          <mxGeometry x="28" y="440" width="120" height="40" as="geometry" />
        </mxCell>
        <mxCell id="GMgysGgVxunvrSP5ivFi-45" value="h2" style="text;html=1;align=center;verticalAlign=middle;whiteSpace=wrap;rounded=0;" vertex="1" parent="1">
          <mxGeometry x="58" y="445" width="60" height="30" as="geometry" />
        </mxCell>
        <mxCell id="GMgysGgVxunvrSP5ivFi-46" value="" style="rounded=0;whiteSpace=wrap;html=1;fillColor=none;fontColor=#000000;strokeColor=#B09500;" vertex="1" parent="1">
          <mxGeometry x="28" y="490" width="462" height="130" as="geometry" />
        </mxCell>
        <mxCell id="GMgysGgVxunvrSP5ivFi-47" value="" style="endArrow=classic;html=1;rounded=0;exitX=1;exitY=0;exitDx=0;exitDy=0;fillColor=#e3c800;strokeColor=#B09500;" edge="1" parent="1" source="GMgysGgVxunvrSP5ivFi-46">
          <mxGeometry width="50" height="50" relative="1" as="geometry">
            <mxPoint x="240" y="520" as="sourcePoint" />
            <mxPoint x="560" y="490" as="targetPoint" />
          </mxGeometry>
        </mxCell>
        <mxCell id="GMgysGgVxunvrSP5ivFi-48" value="Carousal-cards-container" style="text;html=1;align=center;verticalAlign=middle;whiteSpace=wrap;rounded=0;" vertex="1" parent="1">
          <mxGeometry x="556" y="475" width="146" height="30" as="geometry" />
        </mxCell>
        <mxCell id="GMgysGgVxunvrSP5ivFi-49" value="card" style="rounded=0;whiteSpace=wrap;html=1;" vertex="1" parent="1">
          <mxGeometry x="40" y="500" width="70" height="110" as="geometry" />
        </mxCell>
        <mxCell id="GMgysGgVxunvrSP5ivFi-50" value="card" style="rounded=0;whiteSpace=wrap;html=1;" vertex="1" parent="1">
          <mxGeometry x="219.5" y="500" width="70" height="110" as="geometry" />
        </mxCell>
        <mxCell id="GMgysGgVxunvrSP5ivFi-51" value="card" style="rounded=0;whiteSpace=wrap;html=1;" vertex="1" parent="1">
          <mxGeometry x="130" y="500" width="70" height="110" as="geometry" />
        </mxCell>
        <mxCell id="GMgysGgVxunvrSP5ivFi-52" value="card" style="rounded=0;whiteSpace=wrap;html=1;" vertex="1" parent="1">
          <mxGeometry x="310" y="500" width="70" height="110" as="geometry" />
        </mxCell>
        <mxCell id="GMgysGgVxunvrSP5ivFi-53" value="card" style="rounded=0;whiteSpace=wrap;html=1;" vertex="1" parent="1">
          <mxGeometry x="400" y="500" width="70" height="110" as="geometry" />
        </mxCell>
        <mxCell id="GMgysGgVxunvrSP5ivFi-54" value="" style="rounded=0;whiteSpace=wrap;html=1;fillColor=none;fontColor=#ffffff;strokeColor=#B20000;" vertex="1" parent="1">
          <mxGeometry x="19" y="640" width="480" height="170" as="geometry" />
        </mxCell>
        <mxCell id="GMgysGgVxunvrSP5ivFi-55" value="" style="endArrow=classic;html=1;rounded=0;exitX=1;exitY=0;exitDx=0;exitDy=0;fillColor=#e51400;strokeColor=#B20000;" edge="1" parent="1" source="GMgysGgVxunvrSP5ivFi-54">
          <mxGeometry width="50" height="50" relative="1" as="geometry">
            <mxPoint x="540" y="670" as="sourcePoint" />
            <mxPoint x="560" y="640" as="targetPoint" />
          </mxGeometry>
        </mxCell>
        <mxCell id="GMgysGgVxunvrSP5ivFi-56" value="Plans-container" style="text;html=1;align=center;verticalAlign=middle;resizable=0;points=[];autosize=1;strokeColor=none;fillColor=none;" vertex="1" parent="1">
          <mxGeometry x="550" y="624" width="110" height="30" as="geometry" />
        </mxCell>
        <mxCell id="GMgysGgVxunvrSP5ivFi-57" value="h2" style="rounded=0;whiteSpace=wrap;html=1;" vertex="1" parent="1">
          <mxGeometry x="28" y="648" width="120" height="36" as="geometry" />
        </mxCell>
        <mxCell id="GMgysGgVxunvrSP5ivFi-58" value="" style="rounded=0;whiteSpace=wrap;html=1;fillColor=none;fontColor=#000000;strokeColor=#B09500;" vertex="1" parent="1">
          <mxGeometry x="28" y="690" width="462" height="110" as="geometry" />
        </mxCell>
        <mxCell id="GMgysGgVxunvrSP5ivFi-59" value="" style="endArrow=classic;html=1;rounded=0;exitX=1;exitY=0;exitDx=0;exitDy=0;fillColor=#e3c800;strokeColor=#B09500;" edge="1" parent="1" source="GMgysGgVxunvrSP5ivFi-58">
          <mxGeometry width="50" height="50" relative="1" as="geometry">
            <mxPoint x="370" y="730" as="sourcePoint" />
            <mxPoint x="560" y="690" as="targetPoint" />
          </mxGeometry>
        </mxCell>
        <mxCell id="GMgysGgVxunvrSP5ivFi-60" value="Plans-cards-container" style="text;html=1;align=center;verticalAlign=middle;resizable=0;points=[];autosize=1;strokeColor=none;fillColor=none;" vertex="1" parent="1">
          <mxGeometry x="550" y="675" width="140" height="30" as="geometry" />
        </mxCell>
        <mxCell id="GMgysGgVxunvrSP5ivFi-61" value="card" style="whiteSpace=wrap;html=1;aspect=fixed;" vertex="1" parent="1">
          <mxGeometry x="50" y="700" width="90" height="90" as="geometry" />
        </mxCell>
        <mxCell id="GMgysGgVxunvrSP5ivFi-62" value="card" style="whiteSpace=wrap;html=1;aspect=fixed;" vertex="1" parent="1">
          <mxGeometry x="160" y="700" width="90" height="90" as="geometry" />
        </mxCell>
        <mxCell id="GMgysGgVxunvrSP5ivFi-63" value="card" style="whiteSpace=wrap;html=1;aspect=fixed;" vertex="1" parent="1">
          <mxGeometry x="270" y="700" width="90" height="90" as="geometry" />
        </mxCell>
        <mxCell id="GMgysGgVxunvrSP5ivFi-64" value="card" style="whiteSpace=wrap;html=1;aspect=fixed;" vertex="1" parent="1">
          <mxGeometry x="380" y="700" width="90" height="90" as="geometry" />
        </mxCell>
        <mxCell id="GMgysGgVxunvrSP5ivFi-67" value="" style="rounded=0;whiteSpace=wrap;html=1;fillColor=none;fontColor=#ffffff;strokeColor=#B20000;" vertex="1" parent="1">
          <mxGeometry x="20" y="830" width="480" height="170" as="geometry" />
        </mxCell>
        <mxCell id="GMgysGgVxunvrSP5ivFi-68" value="h2" style="rounded=0;whiteSpace=wrap;html=1;" vertex="1" parent="1">
          <mxGeometry x="29" y="838" width="120" height="36" as="geometry" />
        </mxCell>
        <mxCell id="GMgysGgVxunvrSP5ivFi-69" value="card" style="whiteSpace=wrap;html=1;aspect=fixed;" vertex="1" parent="1">
          <mxGeometry x="51" y="890" width="90" height="90" as="geometry" />
        </mxCell>
        <mxCell id="GMgysGgVxunvrSP5ivFi-70" value="card" style="whiteSpace=wrap;html=1;aspect=fixed;" vertex="1" parent="1">
          <mxGeometry x="161" y="890" width="90" height="90" as="geometry" />
        </mxCell>
        <mxCell id="GMgysGgVxunvrSP5ivFi-71" value="card" style="whiteSpace=wrap;html=1;aspect=fixed;" vertex="1" parent="1">
          <mxGeometry x="271" y="890" width="90" height="90" as="geometry" />
        </mxCell>
        <mxCell id="GMgysGgVxunvrSP5ivFi-72" value="card" style="whiteSpace=wrap;html=1;aspect=fixed;" vertex="1" parent="1">
          <mxGeometry x="381" y="890" width="90" height="90" as="geometry" />
        </mxCell>
        <mxCell id="GMgysGgVxunvrSP5ivFi-73" value="" style="rounded=0;whiteSpace=wrap;html=1;fillColor=none;fontColor=#000000;strokeColor=#B09500;" vertex="1" parent="1">
          <mxGeometry x="29" y="880" width="462" height="110" as="geometry" />
        </mxCell>
        <mxCell id="GMgysGgVxunvrSP5ivFi-74" value="" style="endArrow=classic;html=1;rounded=0;exitX=1;exitY=0;exitDx=0;exitDy=0;fillColor=#e3c800;strokeColor=#B09500;" edge="1" source="GMgysGgVxunvrSP5ivFi-73" parent="1">
          <mxGeometry width="50" height="50" relative="1" as="geometry">
            <mxPoint x="371" y="920" as="sourcePoint" />
            <mxPoint x="561" y="880" as="targetPoint" />
          </mxGeometry>
        </mxCell>
        <mxCell id="GMgysGgVxunvrSP5ivFi-75" value="" style="endArrow=classic;html=1;rounded=0;exitX=1;exitY=0;exitDx=0;exitDy=0;fillColor=#e51400;strokeColor=#B20000;" edge="1" source="GMgysGgVxunvrSP5ivFi-67" parent="1">
          <mxGeometry width="50" height="50" relative="1" as="geometry">
            <mxPoint x="541" y="860" as="sourcePoint" />
            <mxPoint x="561" y="830" as="targetPoint" />
          </mxGeometry>
        </mxCell>
        <mxCell id="GMgysGgVxunvrSP5ivFi-76" value="Specs-container" style="text;html=1;align=center;verticalAlign=middle;resizable=0;points=[];autosize=1;strokeColor=none;fillColor=none;" vertex="1" parent="1">
          <mxGeometry x="553" y="815" width="110" height="30" as="geometry" />
        </mxCell>
        <mxCell id="GMgysGgVxunvrSP5ivFi-77" value="Spec-card-container" style="text;html=1;align=center;verticalAlign=middle;resizable=0;points=[];autosize=1;strokeColor=none;fillColor=none;" vertex="1" parent="1">
          <mxGeometry x="554" y="865" width="130" height="30" as="geometry" />
        </mxCell>
        <mxCell id="GMgysGgVxunvrSP5ivFi-81" value="" style="whiteSpace=wrap;html=1;fillColor=none;fontColor=#ffffff;strokeColor=#B20000;" vertex="1" parent="1">
          <mxGeometry x="20" y="1013" width="480" height="177" as="geometry" />
        </mxCell>
        <mxCell id="GMgysGgVxunvrSP5ivFi-82" value="" style="edgeStyle=none;orthogonalLoop=1;jettySize=auto;html=1;rounded=0;fillColor=#e51400;strokeColor=#B20000;" edge="1" parent="1">
          <mxGeometry width="100" relative="1" as="geometry">
            <mxPoint x="500" y="1013" as="sourcePoint" />
            <mxPoint x="560" y="1013" as="targetPoint" />
            <Array as="points" />
          </mxGeometry>
        </mxCell>
        <mxCell id="GMgysGgVxunvrSP5ivFi-83" value="FAQ-container" style="text;html=1;align=center;verticalAlign=middle;resizable=0;points=[];autosize=1;strokeColor=none;fillColor=none;" vertex="1" parent="1">
          <mxGeometry x="550" y="998" width="100" height="30" as="geometry" />
        </mxCell>
        <mxCell id="GMgysGgVxunvrSP5ivFi-85" value="h2" style="whiteSpace=wrap;html=1;" vertex="1" parent="1">
          <mxGeometry x="29" y="1020" width="120" height="40" as="geometry" />
        </mxCell>
        <mxCell id="GMgysGgVxunvrSP5ivFi-86" value="FAQ" style="whiteSpace=wrap;html=1;" vertex="1" parent="1">
          <mxGeometry x="29" y="1070" width="461" height="30" as="geometry" />
        </mxCell>
        <mxCell id="GMgysGgVxunvrSP5ivFi-87" value="FAQ" style="whiteSpace=wrap;html=1;" vertex="1" parent="1">
          <mxGeometry x="28.5" y="1110" width="461" height="30" as="geometry" />
        </mxCell>
        <mxCell id="GMgysGgVxunvrSP5ivFi-88" value="FAQ" style="whiteSpace=wrap;html=1;" vertex="1" parent="1">
          <mxGeometry x="30" y="1150" width="461" height="30" as="geometry" />
        </mxCell>
        <mxCell id="GMgysGgVxunvrSP5ivFi-89" value="Get-started-form" style="whiteSpace=wrap;html=1;" vertex="1" parent="1">
          <mxGeometry x="20" y="1200" width="480" height="60" as="geometry" />
        </mxCell>
        <mxCell id="GMgysGgVxunvrSP5ivFi-90" value="" style="whiteSpace=wrap;html=1;fillColor=none;strokeColor=#10739e;" vertex="1" parent="1">
          <mxGeometry x="21" y="1270" width="479" height="200" as="geometry" />
        </mxCell>
        <mxCell id="GMgysGgVxunvrSP5ivFi-91" value="" style="edgeStyle=none;orthogonalLoop=1;jettySize=auto;html=1;rounded=0;fillColor=#b1ddf0;strokeColor=#10739e;" edge="1" parent="1">
          <mxGeometry width="100" relative="1" as="geometry">
            <mxPoint x="501" y="1270" as="sourcePoint" />
            <mxPoint x="560" y="1270" as="targetPoint" />
            <Array as="points">
              <mxPoint x="551" y="1270" />
            </Array>
          </mxGeometry>
        </mxCell>
        <mxCell id="GMgysGgVxunvrSP5ivFi-92" value="Footer" style="text;html=1;align=center;verticalAlign=middle;resizable=0;points=[];autosize=1;strokeColor=none;fillColor=none;" vertex="1" parent="1">
          <mxGeometry x="551" y="1255" width="60" height="30" as="geometry" />
        </mxCell>
        <mxCell id="GMgysGgVxunvrSP5ivFi-93" value="Footer-contents" style="whiteSpace=wrap;html=1;" vertex="1" parent="1">
          <mxGeometry x="35" y="1280" width="455" height="180" as="geometry" />
        </mxCell>
      </root>
    </mxGraphModel>
  </diagram>
</mxfile>
